<?xml version="1.0" encoding="UTF-8"?>
<svg width="1e3" height="465.4" version="1.1" viewBox="0 0 1e3 465.4" xmlns="http://www.w3.org/2000/svg">
 <g fill="#070f0f" stroke-width="2.7901" aria-label="Essential
Reads">
  <path d="m6.7903 194.57v-194.57h103.68v6.0068h-97.676v88.274h92.191v6.0068h-92.191v88.274h100.55v6.0068zm191.7 3.134q-19.457 0-31.862-9.5325-12.405-9.6631-16.192-27.031l6.0068-1.4364q6.6597 31.993 42.048 31.993 18.934 0 30.687-9.4019 11.883-9.4019 11.883-24.55 0-23.244-28.206-30.295l-22.721-5.7456q-16.845-4.1786-25.594-13.711-8.6184-9.5325-8.6184-23.113 0-17.237 12.536-27.814 12.666-10.577 32.646-10.577 34.082 0 44.659 32.907l-6.0068 1.567q-8.8796-28.467-38.652-28.467-17.498 0-28.336 8.8796-10.838 8.8796-10.838 23.505 0 11.361 7.182 19.326 7.3126 7.835 22.068 11.622l22.983 5.7456q15.931 4.0481 24.419 13.319 8.4879 9.2714 8.4879 22.852 0 11.883-6.268 20.893-6.1374 9.0102-17.106 14.103-10.969 4.9621-25.202 4.9621zm131.89 0q-19.457 0-31.862-9.5325-12.405-9.6631-16.192-27.031l6.0068-1.4364q6.6597 31.993 42.048 31.993 18.934 0 30.687-9.4019 11.883-9.4019 11.883-24.55 0-23.244-28.206-30.295l-22.721-5.7456q-16.845-4.1786-25.594-13.711-8.6184-9.5325-8.6184-23.113 0-17.237 12.536-27.814 12.667-10.577 32.646-10.577 34.082 0 44.659 32.907l-6.0068 1.567q-8.8796-28.467-38.652-28.467-17.498 0-28.336 8.8796-10.838 8.8796-10.838 23.505 0 11.361 7.182 19.326 7.3126 7.835 22.068 11.622l22.983 5.7456q15.931 4.0481 24.419 13.319 8.4879 9.2714 8.4879 22.852 0 11.883-6.268 20.893-6.1374 9.0102-17.106 14.103-10.969 4.9621-25.202 4.9621zm146.51 0q-19.065 0-33.429-9.9243-14.234-10.055-22.199-27.161-7.835-17.237-7.835-38.652 0-21.416 7.9655-38.522 7.9655-17.106 21.677-27.031t30.948-9.9243q17.106 0 30.556 9.4019 13.45 9.4019 21.154 25.725 7.835 16.192 7.835 36.694v3.3952h-114.13q0.13059 19.065 6.7903 34.996 6.7903 15.931 19.587 25.464 12.797 9.5325 31.079 9.5325 13.581 0 22.721-4.701 9.1408-4.8316 14.756-11.1t8.2267-10.577l4.9621 3.3952q-3.2646 5.4845-9.7937 12.275-6.3986 6.7903-16.584 11.752-10.055 4.9621-24.288 4.9621zm-57.326-82.006h108.12q-0.52233-17.629-7.7044-31.993-7.0515-14.364-18.934-22.721-11.883-8.4879-27.031-8.4879-14.364 0-26.378 8.2267t-19.587 22.591q-7.5738 14.233-8.4879 32.384zm161.79-19.065v97.937h-6.0068v-145.99h6.0068v26.769q5.7456-14.495 18.934-21.677 13.189-7.182 28.598-7.182 15.017 0 26.378 6.3985 11.491 6.268 18.02 17.498 6.5291 11.23 6.5291 26.247v97.937h-6.0068v-97.937q0-19.849-12.536-31.993-12.536-12.144-32.384-12.144-13.581 0-24.419 5.7456-10.708 5.615-16.976 15.67-6.1374 9.9243-6.1374 22.721zm183.34-48.054v6.0068h-30.295v112.17q0 13.058 6.5291 19.326 6.6597 6.1374 17.89 3.2646 1.0447-0.26117 2.2199-0.52233 1.1752-0.39175 2.2199-0.65291l1.4364 5.8762q-1.1752 0.26116-2.4811 0.52233-1.1752 0.39175-2.3505 0.65291-14.625 3.5257-23.113-4.8316-8.3573-8.4879-8.3573-23.635v-112.17h-21.416v-6.0068h21.416v-34.735h6.0068v34.735zm31.079 145.99v-145.99h6.0068v145.99zm2.8728-179.29q-2.4811 0-4.3092-1.8282-1.8282-1.8282-1.8282-4.3092 0-2.6117 1.8282-4.3092 1.8282-1.8282 4.3092-1.8282 2.6116 0 4.3092 1.8282 1.8282 1.6976 1.8282 4.3092 0 2.4811-1.8282 4.3092-1.6976 1.8282-4.3092 1.8282zm88.013 182.42q-12.014 0-22.199-4.9621-10.185-4.9621-16.323-14.495-6.1374-9.5325-6.1374-23.113 0-9.9243 4.4398-18.151 4.4398-8.2267 16.323-14.103 12.014-5.8762 34.343-8.4879 10.185-1.1752 19.065-2.6116 9.0102-1.567 14.495-4.5704 5.615-3.134 5.615-8.749v-8.6184q0-16.976-11.361-27.161-11.23-10.185-29.903-10.185-15.409 0-27.031 6.7903-11.491 6.7903-16.062 19.065l-5.7456-2.3505q5.2233-13.581 18.412-21.546 13.319-7.9655 30.426-7.9655 22.199 0 34.735 12.405 12.536 12.275 12.536 30.948v104.73h-6.0068v-29.512h-0.78349q-6.7903 14.625-19.587 23.635-12.797 9.0102-29.25 9.0102zm0-6.0068q13.842 0 25.072-7.4432 11.23-7.5738 17.89-21.024t6.6597-31.079v-21.938q-5.3539 4.0481-14.886 6.268-9.4019 2.2199-21.938 3.6563-19.587 2.2199-30.817 6.9209-11.23 4.701-15.931 11.752-4.701 6.9209-4.701 16.323 0 16.453 11.1 26.508 11.23 10.055 27.553 10.055zm113.35-191.7v194.57h-6.0068v-194.57z"/>
  <path d="m2.3425e-5 462v-194.57h66.597q22.721 0 37.347 7.835 14.756 7.7044 21.807 21.285 7.182 13.581 7.182 30.948 0 19.326-8.8796 33.69-8.749 14.364-27.161 20.763l43.615 80.047h-28.728l-40.481-75.607q-2.2199 0.13058-4.5704 0.13058h-41.917v75.477zm24.811-97.545h40.742q22.983 0 32.776-9.9243 9.9243-9.9243 9.9243-27.031 0-17.367-9.9243-27.814-9.7937-10.447-33.037-10.447h-40.481zm201.88 100.68q-21.154 0-36.563-9.4019-15.278-9.4019-23.635-26.247-8.2267-16.845-8.2267-39.305 0-22.46 8.0961-39.566t22.852-26.769q14.886-9.6631 34.735-9.6631 11.622 0 22.852 3.9175 11.361 3.7869 20.501 12.405 9.2714 8.4879 14.756 22.46 5.4845 13.972 5.4845 34.213v9.7937h-105.51q0.91408 22.852 13.058 35.127 12.275 12.144 31.732 12.144 12.928 0 22.199-5.615 9.4019-5.7456 13.45-16.845l22.721 6.268q-5.0927 16.584-20.632 26.9-15.409 10.185-37.869 10.185zm-44.529-88.013h81.483q-1.6976-18.673-11.752-30.295-9.9243-11.752-27.945-11.752-12.536 0-21.677 5.8762-9.0102 5.8762-14.234 15.409t-5.8762 20.763zm182.55 88.274q-13.842 0-25.202-5.2233-11.23-5.2233-17.89-15.278-6.6597-10.055-6.6597-24.419 0-12.536 4.9621-20.371 4.9621-7.835 13.189-12.275 8.3573-4.5704 18.412-6.7903 10.055-2.2199 20.24-3.5257 13.058-1.6976 21.285-2.6116 8.2267-0.91408 12.144-3.134 4.0481-2.2199 4.0481-7.5738v-0.78349q0-13.581-7.7044-21.024-7.7044-7.5738-22.852-7.5738-15.8 0-24.68 6.9209-8.8796 6.7903-12.275 14.495l-22.591-7.4432q5.615-13.319 15.148-20.763 9.5325-7.5738 21.024-10.708 11.491-3.134 22.721-3.134 7.3126 0 16.584 1.8282 9.4019 1.6976 18.02 6.9209 8.749 5.2233 14.364 15.539 5.7456 10.185 5.7456 27.292v96.239h-23.113v-19.849h-1.567q-2.4811 5.0927-7.9655 10.577-5.4845 5.3539-14.233 9.0102t-21.154 3.6563zm4.0481-20.763q13.058 0 22.068-5.0927 9.0102-5.0927 13.711-13.189 4.701-8.2267 4.701-17.106v-20.24q-1.4364 1.6976-6.268 3.134-4.8316 1.3058-11.1 2.3505-6.1374 1.0447-12.014 1.8282-5.7456 0.65292-9.1408 1.0447-8.4879 1.0447-15.931 3.6563-7.3126 2.4811-11.752 7.4432-4.4398 4.8316-4.4398 13.189 0 11.361 8.4879 17.237 8.6184 5.7456 21.677 5.7456zm159.96 20.501q-18.151 0-32.123-9.2714-13.972-9.2714-21.807-26.247t-7.835-40.219q0-23.113 7.835-39.958 7.9655-16.976 21.938-26.117t32.123-9.1408q14.233 0 22.591 4.701 8.3573 4.701 12.797 10.708 4.5704 5.8762 6.9209 9.7937h1.8282v-71.951h23.505v194.57h-22.721v-22.591h-2.6116q-2.3505 4.048-7.0515 10.185-4.5704 6.0068-13.058 10.838-8.3573 4.701-22.33 4.701zm3.5257-21.024q19.849 0 30.426-15.278 10.577-15.278 10.577-39.697 0-24.158-10.447-39.044-10.316-14.886-30.556-14.886-13.842 0-23.113 7.182-9.1408 7.182-13.711 19.457-4.5704 12.144-4.5704 27.292 0 15.278 4.5704 27.814 4.701 12.405 13.972 19.849 9.2714 7.3126 22.852 7.3126zm155.13 21.024q-22.46 0-37.347-9.7937-14.886-9.7937-18.804-28.728l22.33-5.3539q3.134 12.014 11.752 17.629 8.749 5.615 21.807 5.615 15.278 0 24.288-6.5291 9.1408-6.5291 9.1408-15.539 0-15.017-21.416-20.11l-24.288-5.7456q-39.175-9.2714-39.175-39.828 0-12.536 7.0514-22.068 7.0515-9.6631 19.196-15.017 12.275-5.4845 27.814-5.4845 22.591 0 34.996 9.9243 12.536 9.7937 17.498 25.202l-21.285 5.4845q-3.0034-7.835-10.055-14.234-6.9209-6.3985-21.024-6.3985-13.058 0-21.807 6.0068-8.6184 6.0068-8.6184 15.148 0 8.0961 5.8762 13.058 5.8762 4.8316 18.673 7.835l22.068 5.2233q19.849 4.701 29.381 14.625 9.5325 9.7937 9.5325 24.811 0 12.797-7.3126 22.852-7.182 9.9243-20.24 15.67-12.928 5.7456-30.034 5.7456z"/>
 </g>
</svg>
